<?xml version="1.0" standalone="no"?>
<!DOCTYPE svg PUBLIC "-//W3C//DTD SVG 20010904//EN"
 "http://www.w3.org/TR/2001/REC-SVG-20010904/DTD/svg10.dtd">
<svg version="1.0" xmlns="http://www.w3.org/2000/svg"
 width="512.000000pt" height="512.000000pt" viewBox="0 0 512.000000 512.000000"
 preserveAspectRatio="xMidYMid meet">
<metadata>
Created by potrace 1.14, written by Peter Selinger 2001-2017
</metadata>
<g transform="translate(0.000000,512.000000) scale(0.100000,-0.100000)"
fill="#000000" stroke="none">
<path d="M2310 4939 c-869 -107 -1583 -684 -1855 -1502 -230 -691 -114 -1428
319 -2027 l76 -105 -303 -5 c-331 -5 -354 -9 -397 -69 -38 -55 -41 -99 -38
-561 3 -398 5 -448 20 -476 24 -44 72 -82 116 -91 62 -13 697 -8 782 7 98 17
172 43 245 87 38 23 77 38 107 41 42 4 56 0 115 -35 148 -88 274 -118 483
-118 126 1 172 5 245 23 221 55 386 185 450 354 19 52 20 53 168 64 l87 7 0
-134 c0 -150 9 -194 47 -240 41 -48 78 -59 206 -59 97 0 119 3 157 23 80 40
84 57 90 326 l5 235 98 48 c54 27 102 46 107 43 23 -14 22 -78 0 -142 -46
-129 -6 -266 108 -375 119 -113 279 -166 533 -175 358 -13 603 78 695 259 38
74 45 190 16 279 -30 95 -31 104 -21 179 18 126 -28 246 -132 346 -97 92 -235
144 -441 165 -57 5 -104 12 -106 14 -2 2 32 54 76 117 260 370 394 769 409
1214 21 624 -208 1205 -647 1644 -329 329 -735 540 -1195 621 -137 24 -494 35
-625 18z m1074 -845 c291 -75 474 -373 403 -660 -37 -152 -151 -300 -277 -361
-121 -58 -141 -62 -365 -65 -114 -2 -212 -7 -218 -11 -17 -11 5 -25 227 -147
105 -58 229 -128 275 -155 337 -200 466 -614 297 -959 -98 -201 -276 -332
-506 -371 -77 -14 -188 -16 -767 -13 -609 3 -684 6 -737 21 -92 27 -155 66
-231 142 -115 114 -165 235 -165 401 0 206 119 392 312 484 104 50 170 60 400
60 141 0 176 3 172 13 -2 7 -102 66 -222 132 -316 172 -379 213 -458 298 -115
122 -170 235 -200 410 -24 141 1 280 78 429 70 136 209 263 348 318 119 48
134 48 874 49 606 1 706 -1 760 -15z m-1138 -2947 c221 -73 344 -231 344 -444
0 -236 -132 -398 -377 -465 -117 -32 -356 -32 -468 0 -171 49 -277 131 -338
260 -28 59 -32 80 -35 171 -9 223 74 362 271 451 107 48 182 60 362 56 140 -3
170 -6 241 -29z m2262 17 c97 -19 187 -60 242 -110 47 -42 100 -142 100 -186
l0 -28 -122 0 -123 1 -20 42 c-27 57 -84 84 -201 98 -194 22 -374 -18 -374
-85 0 -56 63 -77 330 -111 383 -50 512 -107 540 -240 31 -150 -75 -263 -291
-312 -114 -26 -427 -23 -531 5 -186 51 -287 142 -313 285 l-7 37 124 0 124 0
19 -42 c36 -77 133 -108 335 -108 223 0 331 40 297 111 -16 31 -90 56 -222 74
-55 8 -152 21 -215 29 -184 25 -311 66 -369 119 -65 60 -80 179 -33 259 48 83
135 133 282 163 94 19 333 19 428 -1z m-3558 -4 c204 -22 308 -97 318 -229 8
-110 -47 -174 -193 -226 -16 -6 -11 -10 27 -20 146 -39 217 -135 194 -260 -10
-50 -74 -117 -137 -145 -105 -44 -161 -50 -551 -50 l-368 0 0 463 c0 255 3
467 7 470 10 11 597 8 703 -3z m2780 -95 l0 -105 -215 0 -215 0 0 -365 0 -365
-120 0 -120 0 0 365 0 365 -215 0 -215 0 0 98 c0 54 3 102 7 105 3 4 251 7
550 7 l543 0 0 -105z"/>
<path d="M1911 3935 c-139 -31 -274 -125 -352 -247 -133 -207 -93 -498 95
-683 78 -76 86 -81 511 -316 159 -88 295 -157 302 -155 10 4 13 68 13 299 0
262 2 296 17 308 13 11 97 15 412 19 351 5 402 7 452 24 177 59 288 219 277
399 -6 98 -41 171 -115 246 -65 64 -123 96 -202 111 -88 16 -1330 12 -1410 -5z"/>
<path d="M2647 2933 c-4 -3 -7 -138 -7 -300 0 -280 -1 -294 -20 -313 -19 -19
-33 -20 -377 -20 -201 0 -387 -5 -423 -11 -163 -26 -281 -129 -325 -283 -50
-172 43 -372 209 -450 93 -44 148 -47 837 -44 592 3 648 5 699 22 101 33 173
77 241 145 111 111 165 248 156 396 -11 180 -108 356 -251 454 -47 33 -226
133 -476 269 -96 52 -193 105 -216 118 -22 13 -44 21 -47 17z"/>
<path d="M1884 970 c-140 -21 -230 -82 -263 -179 -17 -53 -13 -160 8 -206 24
-54 95 -115 162 -140 44 -16 78 -20 189 -20 117 1 143 4 193 24 123 49 188
154 173 280 -16 137 -109 217 -279 240 -86 12 -107 12 -183 1z m43 -370 c90
-30 110 -39 93 -45 -25 -8 -119 1 -166 16 -17 5 -46 25 -65 45 l-34 35 28 -7
c16 -3 81 -24 144 -44z"/>
<path d="M470 875 l0 -96 243 3 c266 3 290 8 316 62 17 37 6 71 -32 100 -27
20 -43 21 -278 24 l-249 3 0 -96z"/>
<path d="M472 518 l3 -93 250 0 c211 1 256 3 287 17 68 30 75 97 15 142 -27
20 -42 21 -293 24 l-265 3 3 -93z"/>
</g>
</svg>
